HIERARCHY
ROOT root
{
	OFFSET	0	13.1	24.9
	CHANNELS 6  Xposition Yposition Zposition Xrotation Yrotation Zrotation
	JOINT spine_1
	{
		OFFSET	0	9.99999	0
		CHANNELS 3  Xrotation Yrotation Zrotation
		JOINT spine_2
		{
			OFFSET	0	112	-10
			CHANNELS 3  Xrotation Yrotation Zrotation
			JOINT spine_3
			{
				OFFSET	0	206.5	19.3
				CHANNELS 3  Xrotation Yrotation Zrotation
				JOINT spine_4
				{
					OFFSET	0	110.4	14.6
					CHANNELS 3  Xrotation Yrotation Zrotation
					JOINT neck_1
					{
						OFFSET	0	71.8	-50.3
						CHANNELS 3  Xrotation Yrotation Zrotation
						JOINT neck_2
						{
							OFFSET	0	86.2	-25.8
							CHANNELS 3  Xrotation Yrotation Zrotation
							JOINT head_ee
							{
								OFFSET	0	179.8	-8.7
								CHANNELS 3  Xrotation Yrotation Zrotation
								End Site
								{
									OFFSET	1	0	0
								}
							}
						}
					}
					JOINT left_clavicle
					{
						OFFSET	-43.2	22.4	-70.8
						CHANNELS 3  Xrotation Yrotation Zrotation
						JOINT left_shoulder
						{
							OFFSET	-93.9	-5.79999	48.7
							CHANNELS 3  Xrotation Yrotation Zrotation
							JOINT left_elbow
							{
								OFFSET	-291.4	-30.8	15.2
								CHANNELS 3  Xrotation Yrotation Zrotation
								JOINT left_lowarm_twist
								{
									OFFSET	-110.7	-3.89999	13.6
									CHANNELS 3  Xrotation Yrotation Zrotation
									JOINT left_hand
									{
										OFFSET	-110.7	-3.89999	13.6
										CHANNELS 3  Xrotation Yrotation Zrotation
										JOINT left_ee
										{
											OFFSET	-80.8	-5.10001	12.1
											CHANNELS 3  Xrotation Yrotation Zrotation
											End Site
											{
												OFFSET	1	0	0
											}
										}
									}
								}
							}
						}
					}
					JOINT right_clavicle
					{
						OFFSET	43.2	22.4	-70.8
						CHANNELS 3  Xrotation Yrotation Zrotation
						JOINT right_shoulder
						{
							OFFSET	93.9	-5.79999	48.7
							CHANNELS 3  Xrotation Yrotation Zrotation
							JOINT right_elbow
							{
								OFFSET	291.4	-30.8	15.2
								CHANNELS 3  Xrotation Yrotation Zrotation
								JOINT right_lowarm_twist
								{
									OFFSET	110.7	-3.89999	13.6
									CHANNELS 3  Xrotation Yrotation Zrotation
									JOINT right_hand
									{
										OFFSET	110.7	-3.89999	13.6
										CHANNELS 3  Xrotation Yrotation Zrotation
										JOINT right_ee
										{
											OFFSET	80.8	-5.10001	12.1
											CHANNELS 3  Xrotation Yrotation Zrotation
											End Site
											{
												OFFSET	1	0	0
											}
										}
									}
								}
							}
						}
					}
				}
			}
		}
	}
	JOINT left_hip
	{
		OFFSET	-82.8	-127.5	0.300001
		CHANNELS 3  Xrotation Yrotation Zrotation
		JOINT left_knee
		{
			OFFSET	-28.2	-396.7	2.2
			CHANNELS 3  Xrotation Yrotation Zrotation
			JOINT left_ankle
			{
				OFFSET	-11.7	-411.3	35.4
				CHANNELS 3  Xrotation Yrotation Zrotation
				JOINT left_toes
				{
					OFFSET	0	-60	-88.6
					CHANNELS 3  Xrotation Yrotation Zrotation
					JOINT left_foot_ee
					{
						OFFSET	-22.5	-16.5	-42.2
						CHANNELS 3  Xrotation Yrotation Zrotation
						End Site
						{
							OFFSET	1	0	0
						}
					}
				}
			}
		}
	}
	JOINT right_hip
	{
		OFFSET	82.8	-127.5	0.300001
		CHANNELS 3  Xrotation Yrotation Zrotation
		JOINT right_knee
		{
			OFFSET	28.2	-396.7	2.2
			CHANNELS 3  Xrotation Yrotation Zrotation
			JOINT right_ankle
			{
				OFFSET	11.7	-411.3	35.4
				CHANNELS 3  Xrotation Yrotation Zrotation
				JOINT right_toes
				{
					OFFSET	0	-60	-88.6
					CHANNELS 3  Xrotation Yrotation Zrotation
					JOINT right_foot_ee
					{
						OFFSET	22.5	-16.5	-42.2
						CHANNELS 3  Xrotation Yrotation Zrotation
						End Site
						{
							OFFSET	1	0	0
						}
					}
				}
			}
		}
	}
}
MOTION
Frames: 13
Frame Time: 0.02
2800.94 716.97 -1473.77 -2.38612587758 75.8145801904 -1.9219552135 0.168074 0.361825 2.37558 0.171189 0.209971 2.39378 0.181468 -0.290387 2.38537 0.173538 0.0898689 2.40128 -3.59198 5.71311 -8.32584 -3.22455 16.8222 -7.80327 -0.0 0.0 -0.0 1.42249 16.2128 4.13748 7.38661 -37.4464 50.3549 3.04972 -56.4866 1.63849 -59.866 -5.2661 5.09699 -2.62127 6.70844 -14.4451 -0.0 0.0 -0.0 5.13248 9.37541 -9.50026 -33.5745 34.5237 -65.7719 0.857311 23.0101 -0.174503 -17.885 0.961035 -2.06589 3.08533 -13.6601 -25.9063 0.0 0.0 0.0 -11.4801 -10.42 11.713 -14.2364 0.319762 2.15575 35.8826 18.9281 -4.609 -13.0442 0.0 0.0 -0.0 0.0 -0.0 30.2151 19.0846 -3.41211 3.60615 0.165211 0.528559 -6.24329 -17.0301 -0.935498 -10.9237 0.0 0.0 0.0 0.0 0.0 
2696.14805041 716.941 -1499.05117483 7.65511763982 86.0542011563 -14.2104607352 0.0125525 0.545595 3.13889 0.0179673 0.344856 3.16721 0.0399839 -0.32646 3.16915 0.0260139 0.177884 3.18094 -1.78648 5.89189 -7.5448 -1.39931 16.6082 -7.26317 -0.0 0.0 -0.0 -1.61623 19.0873 -0.184075 -1.99766 -40.3354 51.6472 2.73187 -53.5281 1.37801 -60.6419 -5.36269 5.12072 -2.25105 5.83983 -12.3885 -0.0 0.0 -0.0 6.1938 8.49075 -11.7572 -29.1767 35.1446 -66.2565 0.887549 23.7332 -0.186499 -17.8416 0.957943 -2.06128 3.25612 -13.8942 -27.1901 0.0 0.0 0.0 -11.9999 -11.446 11.0126 -20.1718 0.293556 3.06565 36.8881 16.7459 -4.66949 -12.3723 0.0 0.0 -0.0 0.0 -0.0 26.4985 18.2014 0.200607 -5.18274 -0.178426 -0.775115 -6.65057 -16.9731 -0.997047 -10.4013 0.0 0.0 0.0 0.0 0.0 
2696.70793908 716.941 -1501.2685086 5.85771945931 84.8469481167 -12.4074825416 0.0125525 0.545595 3.13889 0.0179673 0.344856 3.16721 0.0399839 -0.32646 3.16915 0.0260139 0.177884 3.18094 -1.78648 5.89189 -7.5448 -1.39931 16.6082 -7.26317 -0.0 0.0 -0.0 -1.61623 19.0873 -0.184075 -1.99766 -40.3354 51.6472 2.73187 -53.5281 1.37801 -60.6419 -5.36269 5.12072 -2.25105 5.83983 -12.3885 -0.0 0.0 -0.0 6.1938 8.49075 -11.7572 -29.1767 35.1446 -66.2565 0.887549 23.7332 -0.186499 -17.8416 0.957943 -2.06128 3.25612 -13.8942 -27.1901 0.0 0.0 0.0 -11.9999 -11.446 11.0126 -20.1718 0.293556 3.06565 36.8881 16.7459 -4.66949 -12.3723 0.0 0.0 -0.0 0.0 -0.0 26.4985 18.2014 0.200607 -5.18274 -0.178426 -0.775115 -6.65057 -16.9731 -0.997047 -10.4013 0.0 0.0 0.0 0.0 0.0 
2697.17750943 716.941 -1502.99047313 4.95058991915 83.9024655177 -11.4959944746 0.0125525 0.545595 3.13889 0.0179673 0.344856 3.16721 0.0399839 -0.32646 3.16915 0.0260139 0.177884 3.18094 -1.78648 5.89189 -7.5448 -1.39931 16.6082 -7.26317 -0.0 0.0 -0.0 -1.61623 19.0873 -0.184075 -1.99766 -40.3354 51.6472 2.73187 -53.5281 1.37801 -60.6419 -5.36269 5.12072 -2.25105 5.83983 -12.3885 -0.0 0.0 -0.0 6.1938 8.49075 -11.7572 -29.1767 35.1446 -66.2565 0.887549 23.7332 -0.186499 -17.8416 0.957943 -2.06128 3.25612 -13.8942 -27.1901 0.0 0.0 0.0 -11.9999 -11.446 11.0126 -20.1718 0.293556 3.06565 36.8881 16.7459 -4.66949 -12.3723 0.0 0.0 -0.0 0.0 -0.0 26.4985 18.2014 0.200607 -5.18274 -0.178426 -0.775115 -6.65057 -16.9731 -0.997047 -10.4013 0.0 0.0 0.0 0.0 0.0 
2674.22200589 716.589 -1505.34873603 12.3326695144 84.9826222939 -19.081400009 0.0440296 0.482064 3.20474 0.0497002 0.27727 3.22888 0.068242 -0.404004 3.2155 0.0538312 0.108619 3.23893 -1.52705 5.77916 -7.65325 -1.12738 16.4993 -7.43715 -0.0 0.0 -0.0 -2.00195 19.6496 -0.666805 -4.29903 -41.2077 51.6058 2.61884 -52.3649 1.28781 -60.7156 -5.37188 5.1229 -1.99905 5.18555 -11.0172 -0.0 0.0 -0.0 6.34924 8.28929 -12.0902 -28.7032 35.3677 -66.1571 0.876364 23.4666 -0.182021 -17.9724 0.967283 -2.07518 3.27125 -13.8154 -27.2752 0.0 0.0 0.0 -11.5081 -11.2405 10.4221 -22.371 0.259943 3.4014 36.8732 16.6162 -4.66594 -12.1707 0.0 0.0 -0.0 0.0 -0.0 24.0064 18.0323 0.784016 -6.49715 -0.212465 -0.973953 -5.38493 -16.3219 -0.804287 -10.0707 0.0 0.0 0.0 0.0 0.0 
2675.03750301 716.589 -1508.45757488 9.64402189955 83.5979582466 -16.3795489072 0.0440296 0.482064 3.20474 0.0497002 0.27727 3.22888 0.068242 -0.404004 3.2155 0.0538312 0.108619 3.23893 -1.52705 5.77916 -7.65325 -1.12738 16.4993 -7.43715 -0.0 0.0 -0.0 -2.00195 19.6496 -0.666805 -4.29903 -41.2077 51.6058 2.61884 -52.3649 1.28781 -60.7156 -5.37188 5.1229 -1.99905 5.18555 -11.0172 -0.0 0.0 -0.0 6.34924 8.28929 -12.0902 -28.7032 35.3677 -66.1571 0.876364 23.4666 -0.182021 -17.9724 0.967283 -2.07518 3.27125 -13.8154 -27.2752 0.0 0.0 0.0 -11.5081 -11.2405 10.4221 -22.371 0.259943 3.4014 36.8732 16.6162 -4.66594 -12.1707 0.0 0.0 -0.0 0.0 -0.0 24.0064 18.0323 0.784016 -6.49715 -0.212465 -0.973953 -5.38493 -16.3219 -0.804287 -10.0707 0.0 0.0 0.0 0.0 0.0 
2657.64078579 715.266 -1510.50678955 15.1414592889 85.0448525182 -22.1405031875 0.0625798 0.449672 3.26667 0.0684837 0.241009 3.28863 0.0852518 -0.451063 3.26648 0.0703706 0.0701869 3.2967 -1.33994 5.70114 -7.72584 -0.931566 16.4229 -7.55616 -0.0 0.0 -0.0 -2.41772 20.1803 -1.18774 -6.50404 -41.7788 51.5667 2.52676 -51.3695 1.21537 -60.7671 -5.37831 5.12442 -1.80954 4.69326 -9.98393 -0.0 0.0 -0.0 6.4522 8.14312 -12.3109 -28.3602 35.5131 -66.0429 0.868453 23.2774 -0.178883 -18.0641 0.97385 -2.08491 3.2796 -13.7611 -27.3192 0.0 0.0 0.0 -11.0152 -11.0151 10.1655 -23.929 0.228343 3.63838 36.8529 16.502 -4.66215 -12.0349 0.0 0.0 -0.0 0.0 -0.0 22.2142 17.9109 1.16783 -7.42 -0.233633 -1.11399 -4.466 -15.8375 -0.665194 -9.84313 0.0 0.0 0.0 0.0 0.0 
2658.0650781 715.266 -1512.12378982 13.4100632475 84.4172926141 -20.4017875374 0.0625798 0.449672 3.26667 0.0684837 0.241009 3.28863 0.0852518 -0.451063 3.26648 0.0703706 0.0701869 3.2967 -1.33994 5.70114 -7.72584 -0.931566 16.4229 -7.55616 -0.0 0.0 -0.0 -2.41772 20.1803 -1.18774 -6.50404 -41.7788 51.5667 2.52676 -51.3695 1.21537 -60.7671 -5.37831 5.12442 -1.80954 4.69326 -9.98393 -0.0 0.0 -0.0 6.4522 8.14312 -12.3109 -28.3602 35.5131 -66.0429 0.868453 23.2774 -0.178883 -18.0641 0.97385 -2.08491 3.2796 -13.7611 -27.3192 0.0 0.0 0.0 -11.0152 -11.0151 10.1655 -23.929 0.228343 3.63838 36.8529 16.502 -4.66215 -12.0349 0.0 0.0 -0.0 0.0 -0.0 22.2142 17.9109 1.16783 -7.42 -0.233633 -1.11399 -4.466 -15.8375 -0.665194 -9.84313 0.0 0.0 0.0 0.0 0.0 
2658.60817402 715.266 -1514.09254721 11.7614348198 83.6452161399 -18.7442116628 0.0625798 0.449672 3.26667 0.0684837 0.241009 3.28863 0.0852518 -0.451063 3.26648 0.0703706 0.0701869 3.2967 -1.33994 5.70114 -7.72584 -0.931566 16.4229 -7.55616 -0.0 0.0 -0.0 -2.41772 20.1803 -1.18774 -6.50404 -41.7788 51.5667 2.52676 -51.3695 1.21537 -60.7671 -5.37831 5.12442 -1.80954 4.69326 -9.98393 -0.0 0.0 -0.0 6.4522 8.14312 -12.3109 -28.3602 35.5131 -66.0429 0.868453 23.2774 -0.178883 -18.0641 0.97385 -2.08491 3.2796 -13.7611 -27.3192 0.0 0.0 0.0 -11.0152 -11.0151 10.1655 -23.929 0.228343 3.63838 36.8529 16.502 -4.66215 -12.0349 0.0 0.0 -0.0 0.0 -0.0 22.2142 17.9109 1.16783 -7.42 -0.233633 -1.11399 -4.466 -15.8375 -0.665194 -9.84313 0.0 0.0 0.0 0.0 0.0 
2635.20286538 734.278 -1516.01895156 37.0127300678 85.9124504947 -44.2296878697 0.103086 0.196608 3.35795 0.109359 -0.0173424 3.36365 0.110937 -0.718351 3.28618 0.0959188 -0.190652 3.3583 -1.50053 5.81459 -7.20183 -1.1309 16.2045 -6.9518 -0.0 0.0 -0.0 -2.81512 20.6333 -1.6851 -11.2598 -43.2493 50.6867 2.21212 -47.6114 0.97602 -60.6243 -5.3605 5.12019 -1.54757 4.55918 -8.30045 -0.0 0.0 -0.0 6.53145 8.06626 -12.4793 -27.1488 35.6348 -65.5627 0.88845 23.7546 -0.186862 -17.8482 0.958412 -2.06198 3.06125 -13.629 -25.7269 0.0 0.0 0.0 -10.3578 -10.5726 10.0187 -25.1959 0.197899 3.83042 36.5144 13.4416 -4.58797 -12.7835 0.0 0.0 -0.0 0.0 -0.0 16.1614 17.3643 1.83506 -9.07368 -0.26591 -1.36569 0.449259 -14.3424 0.0660297 -9.08556 0.0 0.0 0.0 0.0 0.0 
2636.05780944 734.278 -1519.24125397 29.3376066896 84.9755744444 -36.5305652782 0.103086 0.196608 3.35795 0.109359 -0.0173424 3.36365 0.110937 -0.718351 3.28618 0.0959188 -0.190652 3.3583 -1.50053 5.81459 -7.20183 -1.1309 16.2045 -6.9518 -0.0 0.0 -0.0 -2.81512 20.6333 -1.6851 -11.2598 -43.2493 50.6867 2.21212 -47.6114 0.97602 -60.6243 -5.3605 5.12019 -1.54757 4.55918 -8.30045 -0.0 0.0 -0.0 6.53145 8.06626 -12.4793 -27.1488 35.6348 -65.5627 0.88845 23.7546 -0.186862 -17.8482 0.958412 -2.06198 3.06125 -13.629 -25.7269 0.0 0.0 0.0 -10.3578 -10.5726 10.0187 -25.1959 0.197899 3.83042 36.5144 13.4416 -4.58797 -12.7835 0.0 0.0 -0.0 0.0 -0.0 16.1614 17.3643 1.83506 -9.07368 -0.26591 -1.36569 0.449259 -14.3424 0.0660297 -9.08556 0.0 0.0 0.0 0.0 0.0 
2615.13808907 738.41 -1525.95819496 49.7365601996 85.3489838498 -56.782483332 0.117644 0.0206894 3.42518 0.124148 -0.197176 3.41957 0.114739 -0.905986 3.30339 0.0997066 -0.373227 3.40487 -2.32279 5.39448 -8.23017 -1.92603 16.2331 -7.96477 -0.0 0.0 -0.0 -2.94202 19.7524 -2.04208 -14.3688 -44.3251 50.0417 1.9396 -43.8506 0.780769 -60.5206 -5.34757 5.11709 -1.02069 4.44896 -4.85963 -0.0 0.0 -0.0 6.55215 6.28555 -12.5844 -26.2158 35.7005 -65.0607 0.916578 24.4199 -0.198342 -17.709 0.948501 -2.04716 2.85359 -13.5087 -24.2342 0.0 0.0 0.0 -9.91127 -10.2618 9.84143 -25.9902 0.176648 3.95047 36.2868 11.6095 -4.54799 -13.367 0.0 0.0 -0.0 0.0 -0.0 12.0158 17.0881 2.03159 -9.89493 -0.279236 -1.491 4.98053 -11.1498 0.720299 -8.5593 0.0 0.0 0.0 0.0 0.0 
2588.97739391 722.066 -1530.68303997 49.8821850642 85.4243117694 -56.9612006529 0.136064 0.370097 3.54195 0.14303 0.144109 3.5583 0.155091 -0.598135 3.51068 0.137897 -0.0365477 3.56102 -1.19068 5.5222 -7.53032 -0.79974 15.9506 -7.38983 -0.0 0.0 -0.0 -2.95979 18.727 -2.2685 -16.9883 -45.0481 48.8703 1.76727 -41.1969 0.664262 -60.8431 -5.38779 5.12665 -0.607989 4.34807 -2.18222 -0.0 0.0 -0.0 6.94888 4.45203 -13.4472 -24.4152 35.6124 -64.2531 0.944738 25.079 -0.210131 -16.9681 0.89637 -1.96792 2.51605 -13.3506 -21.8566 0.0 0.0 0.0 -12.462 -10.4415 9.46885 -30.3257 0.0314524 4.59984 40.6823 10.9284 -4.94365 -11.9006 0.0 0.0 -0.0 0.0 -0.0 10.4434 16.7832 1.22914 -9.0679 -0.26581 -1.36481 10.8346 -6.43584 1.53599 -8.00371 0.0 0.0 0.0 0.0 0.0 
